<?xml version="1.0" encoding="UTF-8"?>
<svg version="1.1" xmlns="http://www.w3.org/2000/svg" width="512" height="512">
<path d="M0 0 C1.45108658 0.00273422 1.45108658 0.00273422 2.93148804 0.00552368 C17.26440977 0.05095174 31.21023917 0.55983928 45.3125 3.3125 C46.65803955 3.55395752 46.65803955 3.55395752 48.03076172 3.80029297 C107.84088904 14.62287989 165.35495829 48.68064457 202.3125 97.3125 C202.72918945 97.85277832 203.14587891 98.39305664 203.57519531 98.94970703 C211.2584873 108.9447116 218.00092968 119.40459036 224.3125 130.3125 C224.70679199 130.98974121 225.10108398 131.66698242 225.50732422 132.36474609 C238.68961173 155.2833756 247.29510918 180.85822563 252.625 206.6875 C252.77243652 207.39817627 252.91987305 208.10885254 253.07177734 208.84106445 C256.05713787 224.48358366 256.6873098 240.11919606 256.625 256 C256.62226578 257.45108658 256.62226578 257.45108658 256.61947632 258.93148804 C256.57404826 273.26440977 256.06516072 287.21023917 253.3125 301.3125 C253.15152832 302.20952637 252.99055664 303.10655273 252.82470703 304.03076172 C242.00212011 363.84088904 207.94435543 421.35495829 159.3125 458.3125 C158.77222168 458.72918945 158.23194336 459.14587891 157.67529297 459.57519531 C147.6802884 467.2584873 137.22040964 474.00092968 126.3125 480.3125 C125.63525879 480.70679199 124.95801758 481.10108398 124.26025391 481.50732422 C101.3416244 494.68961173 75.76677437 503.29510918 49.9375 508.625 C49.22682373 508.77243652 48.51614746 508.91987305 47.78393555 509.07177734 C32.14141634 512.05713787 16.50580394 512.6873098 0.625 512.625 C-0.34239105 512.62317719 -1.3097821 512.62135437 -2.30648804 512.61947632 C-16.63940977 512.57404826 -30.58523917 512.06516072 -44.6875 509.3125 C-45.58452637 509.15152832 -46.48155273 508.99055664 -47.40576172 508.82470703 C-107.21588904 498.00212011 -164.72995829 463.94435543 -201.6875 415.3125 C-202.10418945 414.77222168 -202.52087891 414.23194336 -202.95019531 413.67529297 C-210.6334873 403.6802884 -217.37592968 393.22040964 -223.6875 382.3125 C-224.08179199 381.63525879 -224.47608398 380.95801758 -224.88232422 380.26025391 C-238.06461173 357.3416244 -246.67010918 331.76677437 -252 305.9375 C-252.14743652 305.22682373 -252.29487305 304.51614746 -252.44677734 303.78393555 C-255.43213787 288.14141634 -256.0623098 272.50580394 -256 256.625 C-255.99817719 255.65760895 -255.99635437 254.6902179 -255.99447632 253.69351196 C-255.94904826 239.36059023 -255.44016072 225.41476083 -252.6875 211.3125 C-252.44604248 209.96696045 -252.44604248 209.96696045 -252.19970703 208.59423828 C-241.37712011 148.78411096 -207.31935543 91.27004171 -158.6875 54.3125 C-158.14722168 53.89581055 -157.60694336 53.47912109 -157.05029297 53.04980469 C-147.0552884 45.3665127 -136.59540964 38.62407032 -125.6875 32.3125 C-125.01025879 31.91820801 -124.33301758 31.52391602 -123.63525391 31.11767578 C-100.7166244 17.93538827 -75.14177437 9.32989082 -49.3125 4 C-48.60182373 3.85256348 -47.89114746 3.70512695 -47.15893555 3.55322266 C-31.51641634 0.56786213 -15.88080394 -0.0623098 0 0 Z " fill="#F1BE3E" transform="translate(255.6875,-0.3125)"/>
<path d="M0 0 C1.31508545 -0.00563965 2.6301709 -0.0112793 3.98510742 -0.01708984 C38.34406751 0.2383993 68.863242 15.31346576 92.78955078 39.36181641 C99.22064019 46.06706715 104.43541882 53.38562187 109.25 61.3125 C109.81605957 62.2401416 109.81605957 62.2401416 110.39355469 63.18652344 C116.27394008 73.01852781 120.16211391 83.30329703 123.25 94.3125 C123.59160156 95.50359375 123.93320312 96.6946875 124.28515625 97.921875 C126.47050972 107.23249722 126.53252879 116.54748146 126.5625 126.0625 C126.57095947 128.03512817 126.57095947 128.03512817 126.57958984 130.04760742 C126.3241007 164.40656751 111.24903424 194.925742 87.20068359 218.85205078 C60.04937827 244.8932055 26.47729401 253.0938775 -10.20906067 252.48989868 C-17.67690406 252.3167202 -24.54778926 251.37473822 -31.75 249.3125 C-32.79655762 249.02246094 -32.79655762 249.02246094 -33.86425781 248.7265625 C-67.94292915 239.08754939 -94.79894427 216.15821886 -112.09912109 185.56567383 C-126.54377164 159.12048186 -131.12574585 123.56415786 -122.75 94.3125 C-122.45996094 93.26594238 -122.45996094 93.26594238 -122.1640625 92.19824219 C-113.25811587 60.71132286 -92.66816265 34.26927144 -64.75 17.3125 C-64.13157227 16.93512695 -63.51314453 16.55775391 -62.87597656 16.16894531 C-53.04397219 10.28855992 -42.75920297 6.40038609 -31.75 3.3125 C-30.55890625 2.97089844 -29.3678125 2.62929687 -28.140625 2.27734375 C-18.83000278 0.09199028 -9.51501854 0.02997121 0 0 Z " fill="#F1EA74" transform="translate(255.75,129.6875)"/>
</svg>
